<?xml version="1.0" encoding="UTF-8"?>
<svg width="249px" height="32px" viewBox="0 0 249 32" version="1.1" xmlns="http://www.w3.org/2000/svg" xmlns:xlink="http://www.w3.org/1999/xlink">
    <!-- Generator: sketchtool 55.2 (78181) - https://sketchapp.com -->
    <title>6ADB1358-F07C-40E3-9E70-0054677639F4</title>
    <desc>Created with sketchtool.</desc>
    <g id="DS-Style-Guide" stroke="none" stroke-width="1" fill="none" fill-rule="evenodd">
        <g id="DS-/-Style-Guide-/-Atoms" transform="translate(-207.000000, -389.000000)">
            <g id="Atoms-/-Brand-/-Logo-/-logo-B-horizontal-dark-1tint" transform="translate(207.000000, 389.000000)">
                <g>
                    <g id="Dark_Anagram-5" transform="translate(46.379311, 9.144000)" fill="#C5C6CD">
                        <g id="Dark_Anagram-3">
                            <polygon id="Path" points="14.068182 0.35999999 7.76136373 5.89320015 13.9545456 14.1060004 9.95454557 14.1060004 5.40909097 8.00440021 3.17045458 9.95320027 3.17045458 14.1176004 0 14.1176004 0 0.35999999 3.17045458 0.35999999 3.17045458 5.66120015 9.2159092 0.35999999"></polygon>
                            <path d="M19.6931812,14.1176006 C18.3840896,14.1112522 17.3244003,13.0295213 17.3181813,11.6932005 L17.3181813,2.78440011 C17.3050307,2.13857942 17.5562431,1.51640286 18.0113631,1.06760003 C18.451021,0.603013564 19.0605199,0.346575924 19.6931812,0.359999996 L28.40909,0.359999996 C29.0417513,0.346575924 29.6512503,0.603013564 30.0909082,1.06760003 C30.5460281,1.51640286 30.7972405,2.13857942 30.78409,2.78440011 L30.78409,11.6932005 C30.78409,12.3361914 30.5338675,12.9528471 30.0884686,13.4075103 C29.6430697,13.8621735 29.0389792,14.1176006 28.40909,14.1176006 L19.6931812,14.1176006 Z M20.454545,10.8812 L27.6136361,10.8812 L27.6136361,3.59640007 L20.454545,3.59640007 L20.454545,10.8812 Z" id="Shape"></path>
                            <polygon id="Path" points="48.295456 0.35999999 48.295456 14.1176004 44.7159105 14.1176004 37.2045468 5.13920013 37.2045468 14.1176004 34.0340922 14.1176004 34.0340922 0.35999999 37.6136377 0.35999999 45.1363651 9.32680025 45.1363651 0.35999999"></polygon>
                            <path d="M65.4204549,11.6931999 C65.4204549,13.032159 64.3571311,14.1175999 63.0454548,14.1175999 L53.9545455,14.1175999 C52.6454539,14.1112515 51.5857645,13.0295206 51.5795454,11.6931999 L51.5795454,9.63999993 L54.7500001,9.63999993 L54.7500001,10.7999999 L62.2840912,10.7999999 L62.2840912,8.85119994 L53.3068182,8.85119994 L53.1363637,8.85119994 C52.2235455,8.64843574 51.5742903,7.82119558 51.5795454,6.86759996 L51.5795454,2.78439999 C51.5663949,2.13857934 51.8176073,1.51640281 52.2727273,1.06760001 C52.7042281,0.611884439 53.2995851,0.356214342 53.9204546,0.360000012 L63.0113639,0.360000012 C63.67135,0.323191551 64.3143375,0.581501603 64.7727276,1.06760001 C65.2278475,1.51640281 65.47906,2.13857934 65.4659094,2.78439999 L65.4659094,4.80279997 L62.2386366,4.80279997 L62.2386366,3.64279998 L54.7159091,3.64279998 L54.7159091,5.60319997 L63.6363639,5.60319997 L63.8068185,5.60319997 C64.2568752,5.69127522 64.6605111,5.94261441 64.9431821,6.31079996 C65.2280372,6.66746732 65.3808993,7.1150604 65.3750003,7.57519995 L65.4204549,11.6931999 Z" id="Path"></path>
                            <polygon id="Path" points="82.1363649 0.35999999 82.1363649 3.59640009 76.9772739 3.59640009 76.9772739 14.1176004 73.8636374 14.1176004 73.8636374 3.59640009 68.6590918 3.59640009 68.6590918 0.35999999"></polygon>
                            <path d="M85.3749996,0.35999999 L98.8636361,0.35999999 L98.8636361,3.59639983 L85.3749996,3.59639983 L85.3749996,0.35999999 Z M85.3749996,5.61480002 L98.8636361,5.61480002 L98.8636361,8.85119987 L85.3749996,8.85119987 L85.3749996,5.61480002 Z M85.3749996,10.8696001 L98.8636361,10.8696001 L98.8636361,14.1059999 L85.3749996,14.1059999 L85.3749996,10.8696001 Z" id="Shape"></path>
                            <polygon id="Path" points="105.261368 0.35999999 105.261368 10.8812003 114.352277 10.8812003 114.352277 14.1176004 102.090913 14.1176004 102.090913 0.35999999"></polygon>
                            <polygon id="Path" points="120.795449 0.35999999 120.795449 10.8812003 129.886358 10.8812003 129.886358 14.1176004 117.624994 14.1176004 117.624994 0.35999999"></polygon>
                            <polygon id="Path" points="143.11364 0.35999999 149.590912 14.1176004 146.181821 14.1176004 141.340912 4.1648001 136.670458 14.1176004 133.261367 14.1176004 139.454549 0.35999999"></polygon>
                            <polygon id="Path" points="161.579543 0.35999999 161.579543 3.59640009 156.431816 3.59640009 156.431816 14.1176004 153.261361 14.1176004 153.261361 3.59640009 148.113633 3.59640009 148.113633 0.35999999"></polygon>
                            <polygon id="Path" points="164.772727 0.35999999 167.943182 0.35999999 167.943182 14.1176004 164.772727 14.1176004"></polygon>
                            <path d="M173.61364,14.1176006 C172.304549,14.1112522 171.244859,13.0295213 171.23864,11.6932005 L171.23864,2.78440011 C171.22549,2.13857942 171.476702,1.51640286 171.931822,1.06760003 C172.37148,0.603013564 172.980979,0.346575924 173.61364,0.359999996 L182.329549,0.359999996 C182.96221,0.346575924 183.571709,0.603013564 184.011367,1.06760003 C184.466487,1.51640286 184.7177,2.13857942 184.704549,2.78440011 L184.704549,11.6932005 C184.704549,13.0321597 183.641225,14.1176006 182.329549,14.1176006 L173.61364,14.1176006 Z M174.409095,10.8812 L181.545459,10.8812 L181.545459,3.59640007 L174.409095,3.59640007 L174.409095,10.8812 Z" id="Shape"></path>
                            <polygon id="Path" points="202.272729 0.35999999 202.272729 14.1176004 198.693184 14.1176004 191.170456 5.13920013 191.170456 14.1176004 187.954547 14.1176004 187.954547 0.35999999 191.534092 0.35999999 199.05682 9.32680025 199.05682 0.35999999"></polygon>
                        </g>
                    </g>
                    <g id="Isotype_L-3" transform="translate(0.227273, 0.176000)">
                        <g id="Isotype_L">
                            <ellipse id="Oval" transform="translate(22.778935, 8.784077) rotate(-81.384352) translate(-22.778935, -8.784077) " cx="22.7789347" cy="8.78407655" rx="1" ry="1"></ellipse>
                            <ellipse id="Oval" transform="translate(6.715181, 19.935450) rotate(-81.250000) translate(-6.715181, -19.935450) " cx="6.71518143" cy="19.9354496" rx="1" ry="1"></ellipse>
                            <ellipse id="Oval" transform="translate(21.221586, 13.626118) rotate(-81.250000) translate(-21.221586, -13.626118) " cx="21.2215865" cy="13.626118" rx="1" ry="1"></ellipse>
                            <ellipse id="Oval" transform="translate(4.996368, 11.335784) rotate(-81.250000) translate(-4.996368, -11.335784) " cx="4.99636771" cy="11.3357837" rx="1" ry="1"></ellipse>
                            <ellipse id="Oval" transform="translate(7.557954, 14.916691) rotate(-81.250000) translate(-7.557954, -14.916691) " cx="7.55795449" cy="14.9166912" rx="1" ry="1"></ellipse>
                            <ellipse id="Oval" transform="translate(24.550259, 17.162386) rotate(-81.250000) translate(-24.550259, -17.162386) " cx="24.5502589" cy="17.1623859" rx="1" ry="1"></ellipse>
                            <path d="M23.4705323,22.1193604 C23.2966629,22.1193428 23.1253568,22.1621545 22.9711593,22.2441604 L16.5141061,13.5024002 L19.2554854,8.13600002 C19.7595792,8.30415129 20.3092475,8.07926401 20.5600365,7.60226551 C20.8108255,7.12526701 20.6905955,6.53336641 20.2746895,6.1974828 C19.8587835,5.86159919 19.2668373,5.87834983 18.8697985,6.2372378 C18.4727598,6.59612577 18.3848372,7.19391658 18.661128,7.656 L14.9614416,11.4000001 L10.5554856,5.43551994 C10.9040738,5.06758248 10.9614931,4.50422854 10.6945711,4.07091892 C10.4276491,3.63760929 9.90538499,3.4463541 9.4295011,3.60764528 C8.95361721,3.76893645 8.64712907,4.24108039 8.687101,4.75131012 C8.72707293,5.26153984 9.10317223,5.67796148 9.59811881,5.75999995 L10.0739809,23.7782405 C9.29553719,23.9063502 8.75138836,24.633854 8.83540163,25.434168 C8.91941491,26.234482 9.60221465,26.8277726 10.3895749,26.7846025 C11.1769352,26.7414324 11.7935515,26.0768963 11.7931031,25.2720005 C11.7931031,25.2576005 11.7931031,25.2441605 11.7931031,25.2297605 L22.4398113,23.5833605 C22.6147466,24.122665 23.1598691,24.4405605 23.7038203,24.3204845 C24.2477716,24.2004085 24.6155166,23.6809996 24.5565334,23.1160989 C24.4975502,22.5511983 24.0308186,22.1225822 23.4742941,22.1222404 L23.4705323,22.1193604 Z M21.9065829,21.4243195 L15.4730407,15.5414397 L16.3269592,13.8700798 L21.9065829,21.4243195 Z M18.7090908,8.4 L16.2695924,13.1712002 L15.2952977,11.8521601 L18.7090908,8.4 Z M15.0338556,12.1190399 L16.0815045,13.5359999 L15.1899684,15.28032 L14.3341691,14.49792 C14.626841,13.992937 14.6051803,13.3603312 14.2786832,12.8774399 L15.0338556,12.1190399 Z M12.6103447,13.2988796 L12.6103447,13.2988796 C12.6661619,13.2398128 12.732567,13.1922319 12.805956,13.1587196 L12.8115986,13.1587196 C12.8444246,13.1445033 12.8784112,13.13326 12.9131661,13.1251196 L12.9310344,13.1193596 C12.9709388,13.110798 13.0115764,13.106296 13.052351,13.1059196 L13.0579936,13.1059196 C13.0702193,13.1059196 13.0815046,13.1059196 13.0927899,13.1059196 L13.1275861,13.1059196 L13.1275861,13.1059196 C13.1681457,13.1104689 13.2081572,13.1191522 13.2470219,13.1318396 L13.2470219,13.1318396 C13.4310371,13.1924974 13.5767707,13.3373567 13.6410658,13.5235196 L13.6410658,13.5235196 C13.6836002,13.6376586 13.6901755,13.7625033 13.6598745,13.8806396 L13.6598745,13.8806396 C13.6489422,13.9257894 13.6331732,13.9695732 13.6128526,14.0111996 L13.6034482,14.0294396 C13.585349,14.0633292 13.5642584,14.0954624 13.5404388,14.1254396 L13.5235109,14.1465596 C13.4991704,14.1748418 13.4724197,14.2008638 13.4435736,14.2243196 L13.4247648,14.2406396 C13.3184288,14.3206206 13.1900733,14.3642957 13.0579936,14.3654396 L13.0579936,14.3654396 C13.0194816,14.365247 12.9810709,14.3613903 12.9432601,14.3539196 C12.9203404,14.3488798 12.8977309,14.3424688 12.8755485,14.3347196 L12.8388714,14.3231996 C12.8096814,14.3116319 12.781388,14.2978328 12.7542319,14.2819196 L12.7457679,14.2819196 C12.7163846,14.2639892 12.6884017,14.2437691 12.6620689,14.2214396 C12.5290381,14.1101316 12.447747,13.9470435 12.4379187,13.7717441 C12.4280904,13.5964448 12.490623,13.4249541 12.6103447,13.2988796 L12.6103447,13.2988796 Z M13.0579935,15.2515198 C13.3909707,15.2515181 13.7141458,15.1364771 13.9749214,14.9251198 L14.9294669,15.7977598 L11.0125388,23.4624001 L12.9780561,15.2467198 C13.0062693,15.2486398 13.0307207,15.2505598 13.057053,15.2505598 L13.0579935,15.2515198 Z M13.890282,12.4799997 C13.5710455,12.2557552 13.1776311,12.1701179 12.7965515,12.2419197 L10.2921627,5.70143986 L14.698119,11.6659197 L13.890282,12.4799997 Z M12.2830717,12.4425598 C11.8137438,12.7342286 11.5412976,13.2672731 11.5754247,13.8270804 C11.6095518,14.3868877 11.9446364,14.8813391 12.4457677,15.1113598 L10.434169,23.5103996 L9.98369878,6.43199997 L12.2830717,12.4425598 Z M10.3081501,25.8988805 C10.0058561,25.9005106 9.74651478,25.6792707 9.6944045,25.375304 C9.64229423,25.0713373 9.81262081,24.7733415 10.0974918,24.6700804 C10.1299648,24.657938 10.163288,24.6483108 10.1971783,24.6412804 C10.2741227,24.6251935 10.3534629,24.6251935 10.4304072,24.6412804 C10.4605322,24.6482242 10.4900871,24.6575318 10.5188084,24.6691204 L10.5432598,24.6768004 C10.6840265,24.7360143 10.7985156,24.8460502 10.8648899,24.9859205 C10.8840608,25.0265087 10.8991839,25.0689624 10.910031,25.1126405 L10.910031,25.1203205 C10.9212906,25.1671316 10.9269744,25.2151589 10.9269589,25.2633605 L10.9269589,25.2633605 C10.9262558,25.2955603 10.9231116,25.3276562 10.9175545,25.3593605 L10.9175545,25.3593605 C10.8735064,25.6685858 10.6151876,25.8988576 10.3090906,25.9017605 L10.3081501,25.8988805 Z M11.1423195,24.0124804 L15.2097177,16.0512001 L22.5028213,22.7193603 C22.4265831,22.8699997 22.3853911,23.0365524 22.3824451,23.2060804 L11.7357364,24.8553604 C11.6406198,24.5132153 11.4309586,24.2159623 11.1432599,24.0153604 L11.1423195,24.0124804 Z" id="Shape"></path>
                            <path d="M15.0470225,0 C6.73678146,0 0,6.87690652 0,15.3600006 C0,23.8430947 6.73678146,30.7200012 15.0470225,30.7200012 C23.3572636,30.7200012 30.0940451,23.8430947 30.0940451,15.3600006 C30.0940451,11.2862752 28.5087383,7.37939891 25.6868742,4.49884002 C22.8650101,1.61828113 19.037741,0 15.0470225,0 Z M15.0470214,30.0787189 C7.0837335,30.0787189 0.62821315,23.4889238 0.62821315,15.3599995 C0.62821315,7.23107516 7.0837335,0.641279984 15.0470214,0.641279984 C23.0103093,0.641279984 29.4658297,7.23107516 29.4658297,15.3599995 C29.4658297,23.4889238 23.0103093,30.0787189 15.0470214,30.0787189 L15.0470214,30.0787189 Z" id="Shape"></path>
                        </g>
                    </g>
                    <g id="_Group_" fill="#FFFFFF" fill-rule="nonzero">
                        <ellipse id="Oval" transform="translate(23.777222, 9.309618) rotate(-81.250000) translate(-23.777222, -9.309618) " cx="23.7772224" cy="9.30961823" rx="1" ry="1"></ellipse>
                        <ellipse id="Oval" transform="translate(7.153741, 20.757738) rotate(-81.250000) translate(-7.153741, -20.757738) " cx="7.1537411" cy="20.7577384" rx="1" ry="1"></ellipse>
                        <ellipse id="Oval" transform="translate(22.131653, 14.241040) rotate(-81.250000) translate(-22.131653, -14.241040) " cx="22.1316526" cy="14.2410403" rx="1" ry="1"></ellipse>
                        <ellipse id="Oval" transform="translate(5.386713, 11.875057) rotate(-81.250000) translate(-5.386713, -11.875057) " cx="5.38671302" cy="11.8750571" rx="1" ry="1"></ellipse>
                        <ellipse id="Oval" transform="translate(8.049608, 15.450319) rotate(-81.384352) translate(-8.049608, -15.450319) " cx="8.04960798" cy="15.4503192" rx="1" ry="1"></ellipse>
                        <ellipse id="Oval" transform="translate(25.566786, 17.892768) rotate(-81.250000) translate(-25.566786, -17.892768) " cx="25.5667863" cy="17.892768" rx="1" ry="1"></ellipse>
                        <path d="M24.4514114,23.0079999 C24.2713934,23.0073329 24.0939041,23.0512556 23.93417,23.1359999 L17.2413798,14.1119999 L20.0705335,8.57599992 C20.5898337,8.75069027 21.15711,8.52024149 21.4168291,8.02908444 C21.6765481,7.53792739 21.5539889,6.92736775 21.1259639,6.58006605 C20.6979389,6.23276434 20.0875906,6.24863913 19.6774472,6.61774108 C19.2673037,6.98684304 19.1753632,7.60298169 19.4592482,8.07999993 L15.6739816,11.9439999 L11.1285269,5.79199993 C11.4893738,5.41552537 11.5517803,4.8362028 11.2796968,4.38868114 C11.0076133,3.94115949 10.471363,3.74110586 9.98071388,3.90408237 C9.49006474,4.06705888 9.17183067,4.55094235 9.20984136,5.07621481 C9.24785206,5.60148727 9.63228321,6.032386 10.141066,6.11999993 L10.6347965,24.7199999 C9.79754647,24.8323644 9.19800237,25.6016154 9.27892197,26.4596681 C9.35984156,27.3177208 10.092133,27.9560923 10.9350059,27.9033511 C11.7778787,27.85061 12.4283074,27.1257174 12.4059564,26.2639999 C12.4059564,26.2639999 12.4059564,26.2639999 12.4059564,26.2239999 L23.3777436,24.5279999 C23.5578934,25.082691 24.1186245,25.4096129 24.6781843,25.2861931 C25.2377441,25.1627734 25.6162278,24.6286928 25.5559591,24.04756 C25.4956903,23.4664273 25.0160462,23.025083 24.4435744,23.0239999 L24.4514114,23.0079999 Z M22.8369909,22.2879997 L16.1990596,16.2159997 L17.0768026,14.4879997 L22.8369909,22.2879997 Z M19.5376178,8.84799995 L17.0219439,13.7759998 L16.0188092,12.4159999 L19.5376178,8.84799995 Z M15.7445144,12.6879997 L16.826019,14.1519997 L15.9090912,15.9519997 L15.0235113,15.1519997 C15.326234,14.6314423 15.3048178,13.9787139 14.9686523,13.4799997 L15.7445144,12.6879997 Z M13.2445142,13.9039999 L13.2445142,13.9039999 C13.3027667,13.8431135 13.3719426,13.7942263 13.4482759,13.7599998 L13.4482759,13.7599998 L13.5501568,13.7599998 L13.5501568,13.7599998 L13.6755487,13.7599998 L13.7539186,13.7599998 L13.8793104,13.7599998 L13.8793104,13.7599998 C14.070114,13.8235739 14.2208624,13.9744986 14.286834,14.1679999 L14.286834,14.1679999 C14.3240735,14.2877214 14.3240735,14.4162783 14.286834,14.5359999 L14.286834,14.5359999 C14.2761042,14.5829596 14.2603349,14.6285685 14.239812,14.6719999 L14.239812,14.6719999 L14.1771161,14.7759999 L14.1771161,14.7759999 L14.0909092,14.8559999 L14.0909092,14.8559999 L13.9733543,14.9279999 L13.8557995,14.9279999 L13.7147336,14.9279999 L13.7147336,14.9279999 L13.5971788,14.9279999 L13.5266458,14.9279999 L13.5266458,14.9279999 L13.4404389,14.8879999 L13.4404389,14.8879999 L13.3228841,14.8559999 C13.1854344,14.7413404 13.1012929,14.5731716 13.0908693,14.3922846 C13.0804457,14.2113977 13.1446923,14.0343185 13.2680252,13.9039999 L13.2445142,13.9039999 Z M13.7068966,15.9199996 C14.0511367,15.9208158 14.3854588,15.8023564 14.6551724,15.5839996 L15.6739812,16.4799997 L11.6300942,24.3919998 L13.6598747,15.9119996 L13.7068966,15.9199996 Z M14.5689658,13.0640003 C14.2399286,12.8245883 13.8307287,12.729523 13.4326021,12.8000003 L10.8463951,6.04799995 L15.3918498,12.2080003 L14.5689658,13.0640003 Z M12.9075237,13.064 C12.4244645,13.3650199 12.1439293,13.9139107 12.1784146,14.4905632 C12.2128999,15.0672157 12.5567585,15.5771966 13.0721005,15.816 L10.971787,24.448 L10.5094045,6.84799995 L12.9075237,13.064 Z M10.8699061,26.952 C10.558565,26.9512438 10.2925372,26.7227749 10.2385405,26.4097733 C10.1845439,26.0967716 10.3581118,25.7892794 10.6504704,25.68 L10.7523512,25.68 L10.8699061,25.68 L10.971787,25.6 L11.0658309,25.6 L11.0658309,25.6 C11.210074,25.6621725 11.3271192,25.7759627 11.3949845,25.92 C11.4147352,25.9609882 11.4304851,26.0038616 11.4420064,26.048 L11.4420064,26.048 C11.4475214,26.0958349 11.4475214,26.1441651 11.4420064,26.192 L11.4420064,26.192 C11.4443608,26.2239549 11.4443608,26.2560451 11.4420064,26.288 L11.4420064,26.288 C11.4284105,26.6116698 11.1853867,26.8767401 10.8699061,26.912 L10.8699061,26.952 Z M11.7554861,24.9600005 L15.9561131,16.7440002 L23.479624,23.6240005 C23.4002151,23.7798442 23.3572934,23.9523635 23.3542322,24.1280005 L12.3824453,25.8240005 C12.2773523,25.4707959 12.0558516,25.1655502 11.7554861,24.9600005 Z" id="Shape"></path>
                        <path d="M15.7601881,0.175997983 C9.47414806,0.172775533 3.80590403,4.03738441 1.40108159,9.96603905 C-1.00374085,15.8946937 0.329009952,22.718459 4.77727898,27.2523754 C9.225548,31.7862919 15.9122834,33.1364207 21.7164835,30.6725957 C27.5206837,28.2087707 31.297952,22.416777 31.2852984,15.9999997 C31.2679854,7.25859421 24.3234937,0.180392605 15.7601881,0.175997983 Z M15.7601881,31.224 C7.53651233,31.224 0.869905944,24.4187282 0.869905944,16.024 C0.869905944,7.62927178 7.53651233,0.823999977 15.7601881,0.823999977 C23.9838638,0.823999977 30.6504702,7.62927178 30.6504702,16.024 C30.6374999,24.4093541 23.974691,31.2000104 15.7601881,31.2 L15.7601881,31.224 Z" id="Shape"></path>
                    </g>
                </g>
            </g>
        </g>
    </g>
</svg>