<svg>
  <g>
    <path
      class="ext"
      d="M 7.5 5
        H 213
        V 63
        H 10
        a 7, 7 0 0 1 -5, -5
        V 10
        a 7, 7 0 0 1 5, -5
        "
      fill="white"
    />
    <path
      class="int"
      d="M 7.5 5
        H 120
        a 10, 10 0 0 1 5, 2
        L 149 33
        a 5, 5 0 0 1 0, 5
        L 123 61
        a 10, 10 0 0 1 -5, 2
        H 10
        a 7, 7 0 0 1 -5, -5
        V 10
        a 7, 7 0 0 1 5, -5
        "
      fill="grey"
    />
    <text x="155" y="39" class="label">OUTPUT</text>
  </g>
</svg>