<?xml version="1.0" encoding="UTF-8"?>
<svg width="96px" height="96px" viewBox="0 0 96 96" version="1.1" xmlns="http://www.w3.org/2000/svg" xmlns:xlink="http://www.w3.org/1999/xlink">
    <title>4135B303-CB0F-43C8-8C8F-225E46D3A3E3</title>
    <g id="DS-Style-Guide" stroke="none" stroke-width="1" fill="none" fill-rule="evenodd">
        <g id="DS-/-Style-Guide-/-Brand" transform="translate(-1323.000000, -629.000000)" fill="#E3E3E3">
            <g id="Atoms-/-Brand-/-Isotype-/-isotype-B-light" transform="translate(1323.000000, 629.000000)">
                <g id="Atoms-/-Brand-/-Isotype-v4" transform="translate(17.361702, 18.382979)">
                    <path d="M39.392034,0.338513029 C52.0473532,4.08382118 61.2766298,15.7378092 61.2766298,29.5386469 C61.2766298,46.364437 47.559183,60.0048195 30.6383319,60.0048195 C13.7171404,60.0048195 3.40425532e-05,46.364437 3.40425532e-05,29.5386469 C3.40425532e-05,15.7378092 9.22931064,4.08382118 21.8842894,0.338513029 L21.8842894,0.338513029 L21.8842894,9.58939708 C14.1556085,12.9474463 8.75373617,20.6151049 8.75373617,29.5386469 C8.75373617,41.5572135 18.5518638,51.299957 30.6383319,51.299957 C42.7248,51.299957 52.5225872,41.5572135 52.5225872,29.5386469 C52.5225872,20.6151049 47.1210553,12.9474463 39.392034,9.58939708 L39.392034,9.58939708 Z M30.6383319,20.8338521 C35.4727149,20.8338521 39.392034,24.7311526 39.392034,29.5387146 C39.392034,34.3459381 35.4727149,38.2432386 30.6383319,38.2432386 C25.8036085,38.2432386 21.8842894,34.3459381 21.8842894,29.5387146 C21.8842894,24.7311526 25.8036085,20.8338521 30.6383319,20.8338521 Z" id="Combined-Shape"></path>
                </g>
            </g>
        </g>
    </g>
</svg>