<?xml version="1.0" encoding="UTF-8"?>
<svg width="502px" height="40px" viewBox="0 0 502 40" version="1.1" xmlns="http://www.w3.org/2000/svg" xmlns:xlink="http://www.w3.org/1999/xlink">
    <title>BBCD0C09-CA67-46B9-9EA4-BBE1D69FCE36</title>
    <g id="DS-Style-Guide" stroke="none" stroke-width="1" fill="none" fill-rule="evenodd">
        <g id="DS-/-Style-Guide-/-Brand" transform="translate(-160.000000, -1020.000000)">
            <g id="Atoms-/-Brand-/-Logo-/-logo-B-horizontal-dark-1tint-KRE-Copy" transform="translate(160.000000, 1020.000000)">
                <g id="Group">
                    <rect id="Rectangle" fill="#15161A" opacity="0" x="0" y="0" width="280" height="40"></rect>
                    <g id="Atoms-/-Brand-/-Logo-v4" transform="translate(13.000000, 13.000000)" fill="#E3E3E3">
                        <g id="Combined-Shape">
                            <path d="M242.092497,0.000549019608 L244.210277,2.01572549 L251.769145,9.21021569 L251.769145,0.389941176 L253.886925,0.389941176 L253.886925,13.9540196 L251.769145,11.9382941 L244.210277,4.74366667 L242.092497,2.72807843 L242.092497,0.000549019608 Z M45.093773,0.000549019608 L47.2115537,2.01572549 L54.7704211,9.21021569 L54.7704211,0.389941176 L56.8882018,0.389941176 L56.8882018,13.9540196 L54.7704211,11.9382941 L47.2115537,4.74380392 L45.093773,2.72807843 L45.093773,0.000549019608 Z M222.663586,0.329960784 L222.663586,2.38988235 C222.209477,2.49419608 221.775143,2.65986275 221.369634,2.90170588 C220.65874,3.32541176 220.091836,3.9075098 219.684238,4.63098039 C219.27664,5.35568627 219.069987,6.15396078 219.069987,7.00343137 C219.069987,7.84082353 219.279286,8.62647059 219.692315,9.33827451 C220.105065,10.050902 220.677957,10.6242157 221.395117,11.0424314 C222.110328,11.460098 222.903382,11.6720196 223.752416,11.6720196 C224.601032,11.6720196 225.387958,11.4632549 226.09175,11.0514902 C226.795959,10.6397255 227.3598,10.0666863 227.767259,9.34884314 C228.174717,8.62976471 228.381371,7.8345098 228.381371,6.98586275 C228.381371,6.13639216 228.171654,5.33852941 227.758207,4.61423529 C227.345318,3.89076471 226.77535,3.31154902 226.064595,2.89319608 C225.663821,2.65780392 225.235196,2.49529412 224.787633,2.39194118 L224.787633,2.39194118 L224.787633,0.334352941 C225.607005,0.463784314 226.388223,0.740352941 227.11903,1.16817647 C228.159399,1.77731373 229.000496,2.60647059 229.619342,3.63231373 C230.238746,4.66076471 230.552904,5.78913725 230.552904,6.98586275 C230.552904,8.19494118 230.241809,9.32880392 229.628533,10.3560196 C229.015535,11.383098 228.173603,12.206902 227.125853,12.8046471 C226.077685,13.4029412 224.930508,13.7064118 223.716488,13.7064118 C222.490632,13.7064118 221.340808,13.406098 220.298489,12.8138431 C219.25617,12.2215882 218.419947,11.403549 217.813355,10.3823725 C217.206067,9.36105882 216.898036,8.21813725 216.898036,6.98586275 C216.898036,5.78858824 217.20913,4.6604902 217.822685,3.633 C218.434848,2.60701961 219.269956,1.77772549 220.304895,1.16831373 C221.039183,0.735960784 221.829591,0.457470588 222.663586,0.329960784 L222.663586,0.329960784 Z M72.962614,0.318568627 C74.3962379,0.318568627 75.739625,0.672411765 76.9613037,1.3704902 L76.9613037,1.3704902 L77.113091,1.45709804 L76.2850844,3.11198039 L76.1142193,3.02139216 C75.6594145,2.78037255 75.1696568,2.58258824 74.6581754,2.43380392 C74.1493399,2.28598039 73.6654309,2.21090196 73.2196776,2.21090196 C72.5587763,2.21090196 72.0318377,2.35611765 71.6536228,2.64229412 C71.2855735,2.92078431 71.1066316,3.29288235 71.1066316,3.78 C71.1066316,4.2517451 71.318716,4.62823529 71.755,4.9307451 C72.2249836,5.25672549 72.9091404,5.586 73.7883925,5.90937255 C74.4662829,6.14847059 75.0492018,6.41323529 75.5183498,6.69543137 C76.002955,6.98696078 76.4106919,7.39460784 76.7305592,7.90739216 C77.0530724,8.42470588 77.216557,9.08586275 77.216557,9.87288235 C77.216557,10.5893529 77.0317664,11.2476275 76.667477,11.8295882 C76.3031875,12.4114118 75.7791732,12.8753333 75.1100559,13.2081765 C74.4453947,13.5388235 73.6581897,13.7064118 72.7703037,13.7064118 C71.9502346,13.7064118 71.1496612,13.5746471 70.390864,13.315098 C69.6356875,13.0573333 68.961,12.7247647 68.3857401,12.3267255 L68.3857401,12.3267255 L68.2473213,12.2309216 L69.2077588,10.5363725 L69.3793202,10.6645686 C69.8050208,10.9823137 70.3269463,11.2566863 70.9311711,11.48 C72.2897368,11.9826275 73.4561316,11.906451 74.3263322,11.3151569 C74.7978476,10.9942549 75.0270603,10.5282745 75.0270603,9.89058824 C75.0270603,9.35419608 74.8351678,8.9405098 74.4405208,8.62592157 C74.0201118,8.29143137 73.4168618,7.97011765 72.6476206,7.67131373 C71.9138893,7.39845098 71.2923969,7.12682353 70.803057,6.86466667 C70.2960318,6.59331373 69.8554309,6.21545098 69.4939265,5.74178431 C69.1229529,5.257 68.9350987,4.64470588 68.9350987,3.92178431 C68.9350987,2.8672549 69.3162379,2.00117647 70.0677939,1.34784314 C70.8105768,0.701372549 71.7843827,0.354941176 72.9617785,0.318568627 L72.9617785,0.318568627 Z M25.6066535,0.329960784 L25.6066535,2.38988235 C25.1526842,2.49419608 24.7182105,2.65986275 24.312841,2.90170588 C23.6019474,3.32541176 23.0349035,3.9075098 22.6274452,4.63098039 C22.2197083,5.35568627 22.0131941,6.15396078 22.0131941,7.00343137 C22.0131941,7.84082353 22.2224934,8.62647059 22.6355219,9.33827451 C23.0482719,10.050902 23.6211645,10.6242157 24.3381853,11.0424314 C25.0535351,11.460098 25.8464496,11.6720196 26.6954836,11.6720196 C27.5440998,11.6720196 28.3311656,11.4632549 29.034818,11.0514902 C29.7391667,10.6397255 30.3028684,10.0666863 30.7103268,9.34884314 C31.1177851,8.62976471 31.3244386,7.8345098 31.3244386,6.98586275 C31.3244386,6.13639216 31.1147215,5.33852941 30.7014145,4.61423529 C30.288386,3.89076471 29.7184178,3.31154902 29.0078026,2.89319608 C28.6068893,2.65780392 28.1782643,2.49529412 27.7308399,2.39194118 L27.7308399,2.39194118 L27.7308399,0.334352941 C28.5500735,0.463784314 29.3314298,0.740352941 30.0620976,1.16817647 C31.1024671,1.77731373 31.9435636,2.60647059 32.5624101,3.63231373 C33.1818136,4.66076471 33.4959715,5.78913725 33.4959715,6.98586275 C33.4959715,8.19494118 33.1848772,9.32880392 32.5716009,10.3560196 C31.9586031,11.383098 31.1168103,12.206902 30.0690603,12.8046471 C29.0207533,13.4029412 27.8737149,13.7064118 26.6596952,13.7064118 C25.4336996,13.7064118 24.2838761,13.406098 23.2416963,12.8138431 C22.1992379,12.2215882 21.3630154,11.403549 20.7564232,10.3823725 C20.1491349,9.36105882 19.8412434,8.21813725 19.8412434,6.98586275 C19.8412434,5.78858824 20.1523377,4.6604902 20.7657533,3.633 C21.3780548,2.60701961 22.2131634,1.77772549 23.248102,1.16831373 C23.9822511,0.735960784 24.7727982,0.457470588 25.6066535,0.329960784 L25.6066535,0.329960784 Z M172.497332,4.97137255 L176.198157,13.5650392 L174.057956,13.5650392 L171.427302,7.45609804 L172.497332,4.97137255 Z M170.356435,-5.85152841e-14 L171.426466,2.48472549 L171.427302,2.48664706 L170.357271,4.97137255 L170.356435,4.96945098 L166.654775,13.5650392 L164.514714,13.5650392 L169.286405,2.48472549 L170.356435,-5.85152841e-14 Z M242.092483,5.46260784 L244.210263,7.47833333 L244.210263,13.5640784 L242.092483,13.5640784 L242.092483,5.46260784 Z M205.358443,0.389392157 L205.358443,13.5646275 L203.240662,13.5646275 L203.240662,0.389392157 L205.358443,0.389392157 Z M191.845337,0.389392157 L191.845337,2.40566667 L188.359242,2.40566667 L188.359242,13.5646275 L186.241183,13.5646275 L186.241183,0.389392157 L191.845337,0.389392157 Z M147.858636,0.389392157 L147.858636,11.5302353 L154.471827,11.5302353 L154.471827,13.5646275 L145.740855,13.5646275 L145.740855,0.389392157 L147.858636,0.389392157 Z M127.695715,0.389392157 L127.695715,11.5302353 L134.308906,11.5302353 L134.308906,13.5646275 L125.577934,13.5646275 L125.577934,0.389392157 L127.695715,0.389392157 Z M106.975916,4.41631373 L106.975916,5.9332549 L113.68742,5.9332549 L113.68742,7.94966667 L106.975916,7.94966667 L106.975916,11.5302353 L113.68742,11.5302353 L113.68742,13.5646275 L104.858135,13.5646275 L104.858135,4.41631373 L106.975916,4.41631373 Z M93.2106195,0.389392157 L93.2106195,13.5646275 L91.0924211,13.5646275 L91.0924211,2.40566667 L87.6960066,2.40566667 L87.6960066,0.389392157 L93.2106195,0.389392157 Z M5.86915461,7.79964706 L10.3446513,13.5646275 L7.66135855,13.5646275 L4.40364145,9.29545098 L5.86915461,7.79964706 Z M2.1177807,0.389392157 L2.11847697,5.79778431 L7.41738487,0.389392157 L10.2814298,0.389392157 L2.1177807,8.72172549 L2.1177807,13.5646275 L2.99175889e-12,13.5646275 L2.99175889e-12,0.389392157 L2.1177807,0.389392157 Z M45.093773,5.46260784 L47.2115537,7.47833333 L47.2115537,13.5640784 L45.093773,13.5640784 L45.093773,5.46260784 Z M113.679065,0.389392157 L113.679065,2.40566667 L104.858135,2.40566667 L104.858135,0.389392157 L113.679065,0.389392157 Z"></path>
                        </g>
                    </g>
                </g>
                <g id="Atoms-/-Brand-/-Tag-KRE-long-Copy-3" transform="translate(281.000000, 9.000000)">
                    <g id="Atoms-/-Brand-/-Tag-KRE">
                        <polygon id="Fill-1" fill="#FC915F" points="0 0.0007 0 22.3257 93.233 22.3257 102.553 0.0007"></polygon>
                        <polygon id="Fill-2" fill="#FC915F" points="104.85 0.0007 95.53 22.3257 186.281 22.3257 186.281 0.0007"></polygon>
                        <path d="M17.9289,10.2445 C18.3059,10.2445 18.6189,10.1165 18.8699,9.8605 C19.1209,9.6055 19.2459,9.2895 19.2459,8.9135 C19.2459,8.5365 19.1179,8.2215 18.8629,7.9655 C18.6069,7.7095 18.2959,7.5815 17.9289,7.5815 L15.7149,7.5815 L15.7149,10.2445 L17.9289,10.2445 Z M18.9719,11.7935 L21.6059,16.5415 L19.1589,16.5415 L16.7849,11.9375 L15.7149,11.9375 L15.7149,16.5415 L13.5289,16.5415 L13.5289,5.6845 L18.0159,5.6845 C18.9129,5.6845 19.6729,5.9985 20.2959,6.6265 C20.9179,7.2535 21.2299,8.0205 21.2299,8.9275 C21.2299,9.6325 21.0199,10.2425 20.5999,10.7585 C20.1799,11.2745 19.6369,11.6195 18.9719,11.7935 L18.9719,11.7935 Z" id="Fill-3" fill="#101010"></path>
                        <path d="M31.7677,15.6293 C30.9087,16.3343 29.8567,16.6863 28.6117,16.6863 C27.3677,16.6863 26.3157,16.3343 25.4557,15.6293 C24.5977,14.9253 24.1677,14.0623 24.1677,13.0383 L24.1677,5.6853 L26.3537,5.6853 L26.3537,12.6483 C26.3537,13.2363 26.5737,13.7383 27.0127,14.1523 C27.4517,14.5673 27.9847,14.7753 28.6117,14.7753 C29.2397,14.7753 29.7727,14.5673 30.2107,14.1523 C30.6507,13.7383 30.8707,13.2363 30.8707,12.6483 L30.8707,5.6853 L33.0557,5.6853 L33.0557,13.0383 C33.0557,14.0623 32.6257,14.9253 31.7677,15.6293" id="Fill-5" fill="#101010"></path>
                        <polygon id="Fill-7" fill="#101010" points="44.3459 5.6849 46.5169 5.6849 46.5169 16.5409 44.2879 16.5409 38.7439 8.9859 38.7439 16.5409 36.5579 16.5409 36.5579 5.6849 38.7869 5.6849 44.3459 13.2269"></polygon>
                        <polygon id="Fill-9" fill="#101010" points="57.1847 5.6849 57.1847 7.5809 54.4057 7.5809 54.4057 16.5409 52.2487 16.5409 52.2487 7.5809 49.4557 7.5809 49.4557 5.6849"></polygon>
                        <polygon id="Fill-11" fill="#101010" points="60.123 16.541 62.31 16.541 62.31 5.685 60.123 5.685"></polygon>
                        <polygon id="Fill-13" fill="#101010" points="75.2638 5.6849 77.5938 5.6849 77.5938 16.5409 75.4228 16.5409 75.4228 8.7539 71.6738 14.4569 67.9688 8.7539 67.9688 16.5409 65.7828 16.5409 65.7828 5.6849 68.1418 5.6849 71.6888 10.9679"></polygon>
                        <polygon id="Fill-14" fill="#101010" points="87.5099 7.5814 83.2549 7.5814 83.2549 10.1574 86.9029 10.1574 86.9029 12.0684 83.2549 12.0684 83.2549 14.6304 87.5099 14.6304 87.5099 16.5414 81.0689 16.5414 81.0689 5.6854 87.5099 5.6854"></polygon>
                        <polygon id="Fill-15" fill="#101010" points="118.1955 7.5814 113.9405 7.5814 113.9405 10.1574 117.5885 10.1574 117.5885 12.0684 113.9405 12.0684 113.9405 14.6304 118.1955 14.6304 118.1955 16.5414 111.7545 16.5414 111.7545 5.6854 118.1955 5.6854"></polygon>
                        <polygon id="Fill-16" fill="#101010" points="129.0949 5.6849 131.2659 5.6849 131.2659 16.5409 129.0369 16.5409 123.4929 8.9859 123.4929 16.5409 121.3069 16.5409 121.3069 5.6849 123.5359 5.6849 129.0949 13.2269"></polygon>
                        <path d="M140.4425,7.5521 C139.3425,7.5521 138.4455,7.8751 137.7505,8.5221 C137.0555,9.1691 136.7085,10.0521 136.7085,11.1711 C136.7085,12.2521 137.0485,13.1141 137.7285,13.7551 C138.4095,14.3971 139.2705,14.7171 140.3125,14.7171 C140.7855,14.7171 141.2485,14.6501 141.7025,14.5151 L141.7025,12.2421 L139.6315,12.2421 L139.6315,10.3751 L143.6715,10.3751 L143.6715,15.8181 C142.5895,16.4841 141.4995,16.8171 140.3995,16.8171 C138.7015,16.8171 137.3165,16.2981 136.2455,15.2601 C135.1735,14.2231 134.6385,12.8601 134.6385,11.1711 C134.6385,9.5111 135.1755,8.1581 136.2525,7.1111 C137.3285,6.0641 138.6525,5.5401 140.2255,5.5401 C141.5665,5.5401 142.7145,5.8731 143.6715,6.5391 L143.6715,9.0291 C142.7835,8.0441 141.7075,7.5521 140.4425,7.5521" id="Fill-17" fill="#101010"></path>
                        <polygon id="Fill-18" fill="#101010" points="147.145 16.541 149.332 16.541 149.332 5.685 147.145 5.685"></polygon>
                        <polygon id="Fill-19" fill="#101010" points="160.5919 5.6849 162.7629 5.6849 162.7629 16.5409 160.5339 16.5409 154.9899 8.9859 154.9899 16.5409 152.8039 16.5409 152.8039 5.6849 155.0329 5.6849 160.5919 13.2269"></polygon>
                        <polygon id="Fill-20" fill="#101010" points="172.6779 7.5814 168.4229 7.5814 168.4229 10.1574 172.0709 10.1574 172.0709 12.0684 168.4229 12.0684 168.4229 14.6304 172.6779 14.6304 172.6779 16.5414 166.2369 16.5414 166.2369 5.6854 172.6779 5.6854"></polygon>
                    </g>
                </g>
            </g>
        </g>
    </g>
</svg>