<?xml version="1.0" encoding="utf-8"?>
<!-- Generator: Adobe Illustrator 26.0.1, SVG Export Plug-In . SVG Version: 6.00 Build 0)  -->
<svg version="1.1" id="Layer_1" xmlns="http://www.w3.org/2000/svg" xmlns:xlink="http://www.w3.org/1999/xlink" x="0px" y="0px"
	 viewBox="0 0 1462.7 188.3" style="enable-background:new 0 0 1462.7 188.3;" xml:space="preserve">
<style type="text/css">
	.st0{fill:#FFFFFF;}
	.st1{fill:#FF915E;}
	.st2{fill:#242424;}
</style>
<polygon class="st0" points="242.7,63.4 242.7,105.9 196.8,61.5 196.8,61.5 196.8,74.7 196.8,74.7 252.7,128.7 252.7,128.7
	252.7,63.4 "/>
<polygon class="st0" points="196.8,126.9 206.8,126.9 206.8,97.5 196.8,87.8 "/>
<path class="st0" d="M308,93.8c-2.6-1.5-5.4-2.8-8.2-3.8c-3.4-1.2-6.6-2.8-9.6-4.7c-3.1-2.1-4-6.3-2-9.4c0.4-0.6,0.9-1.2,1.5-1.6
	c2.2-1.5,4.8-2.2,7.4-2.1c2.3,0,4.6,0.4,6.8,1.1c2.4,0.7,4.7,1.7,6.9,2.8l0.8,0.4l3.9-8l-0.7-0.4c-5.8-3.4-12.3-5.1-19-5.1l0,0
	c-5.6,0.2-10.2,1.8-13.7,5c-3.6,3.1-5.5,7.7-5.4,12.4c-0.1,3.1,0.8,6.2,2.6,8.8c1.7,2.2,3.8,4.1,6.2,5.4c2.8,1.5,5.8,2.8,8.8,3.9
	c3,1.1,5.9,2.7,8.5,4.6c1.8,1.5,2.9,3.7,2.8,6.1c0.2,2.7-1.1,5.3-3.3,6.9c-4.1,2.8-9.7,3.2-16.1,0.8c-2.6-1-5.1-2.3-7.4-3.9
	l-0.8-0.6l-4.6,8.2l0.6,0.5c2.9,2,6.1,3.6,9.5,4.8c3.6,1.3,7.5,1.9,11.3,1.9c3.8,0.1,7.6-0.7,11.1-2.4c3-1.5,5.6-3.8,7.4-6.6
	c1.7-2.8,2.6-6.1,2.6-9.4c0.1-3.3-0.7-6.6-2.3-9.5C312.3,97.3,310.4,95.3,308,93.8z"/>
<polygon class="st0" points="336.8,73.1 352.9,73.1 352.9,126.9 363,126.9 363,63.4 336.8,63.4 "/>
<polygon class="st0" points="465.5,63.4 455.5,63.4 455.5,126.9 496.9,126.9 496.9,117.1 465.5,117.1 "/>
<polygon class="st0" points="524.6,63.4 514.6,63.4 514.6,126.9 556,126.9 556,117.1 524.6,117.1 "/>
<polygon class="st0" points="646.8,126.9 656.9,126.9 656.9,73.1 673.4,73.1 673.4,63.4 646.8,63.4 "/>
<rect x="697.5" y="63.4" class="st0" width="10" height="63.4"/>
<path class="st0" d="M776.8,67.2c-3.4-2-7.2-3.4-11.1-4v9.9c2.1,0.5,4.2,1.3,6.1,2.4c3.3,2,6.1,4.9,8,8.3c3.9,7.1,3.9,15.7,0,22.8
	c-1.9,3.4-4.6,6.2-8,8.2c-3.4,2-7.2,3-11.1,3c-3.9,0-7.8-1-11.2-3c-6.9-4.1-11-11.5-11-19.4c0-4,1-7.9,2.9-11.4
	c1.9-3.4,4.6-6.3,8-8.3c1.9-1.2,4-2.1,6.2-2.6v-9.9c-4,0.6-7.8,2-11.2,4c-4.9,2.9-8.9,7-11.8,11.9c-2.9,4.9-4.4,10.5-4.4,16.1
	c0,17.9,14.5,32.4,32.4,32.3c5.7,0,11.3-1.5,16.2-4.3c4.9-2.8,9-6.9,11.9-11.8c5.9-10,5.9-22.4,0-32.4
	C785.8,74.1,781.7,70,776.8,67.2z"/>
<polygon class="st0" points="611.6,85.5 606.5,97.4 619,126.9 629.2,126.9 "/>
<polygon class="st0" points="606.5,73.5 606.5,73.5 601.4,61.5 601.4,61.5 573.7,126.9 583.9,126.9 "/>
<polygon class="st0" points="858.8,63.4 858.8,105.9 812.9,61.5 812.9,61.5 812.9,74.7 812.9,74.7 868.9,128.7 868.9,128.7
	868.9,63.4 "/>
<polygon class="st0" points="812.9,126.9 822.9,126.9 822.9,97.5 812.9,87.8 "/>
<rect x="388.3" y="63.4" class="st0" width="41.9" height="9.7"/>
<polygon class="st0" points="398.3,99.8 430.2,99.8 430.2,90.1 398.3,90.1 398.3,82.8 388.3,82.8 388.3,126.9 430.2,126.9
	430.2,117.1 398.3,117.1 "/>
<rect x="1052.9" y="63.4" class="st0" width="10.1" height="63.4"/>
<polygon class="st0" points="1017.5,85.5 1012.5,97.4 1025,126.9 1035.1,126.9 "/>
<polygon class="st0" points="1012.5,73.5 1012.5,73.5 1007.4,61.5 1007.4,61.5 979.7,126.9 989.8,126.9 "/>
<polygon class="st1" points="962.4,44.3 952.3,44.3 909.9,144 920.1,144 "/>
<path class="st0" d="M160.7,67.2c-3.4-2-7.2-3.4-11.1-4v9.9c2.1,0.5,4.2,1.3,6.1,2.4c3.3,2,6.1,4.9,8,8.3c3.9,7.1,3.9,15.7,0,22.8
	c-1.9,3.4-4.6,6.2-7.9,8.2c-3.4,2-7.2,3-11.1,3c-3.9,0-7.8-1-11.2-3c-6.9-4.1-11-11.5-11-19.4c0-4,1-7.9,2.9-11.4
	c1.9-3.4,4.6-6.3,8-8.3c1.9-1.2,4-2.1,6.2-2.6v-9.9c-4,0.6-7.8,2-11.2,4c-4.9,2.9-8.9,7-11.8,11.9c-2.9,4.9-4.4,10.5-4.4,16.1
	c0,17.9,14.5,32.4,32.4,32.3c5.7,0,11.3-1.5,16.2-4.3c4.9-2.8,9-6.9,11.9-11.8c2.9-4.9,4.4-10.5,4.4-16.2c0-5.7-1.5-11.3-4.4-16.2
	C169.7,74.1,165.6,70,160.7,67.2z"/>
<polygon class="st0" points="78.9,99.1 71.9,106.3 87.4,126.9 100.1,126.9 "/>
<polygon class="st0" points="86.2,63.4 61.1,89.4 61.1,63.4 51,63.4 51,126.9 61.1,126.9 61.1,103.5 99.8,63.4 "/>
<rect x="1118.5" y="62.4" class="st1" width="295.5" height="66"/>
<path class="st2" d="M1162.2,91.4c0-1-0.4-2-1.2-2.7c-0.9-0.8-2.1-1.2-3.3-1.1c-1-0.1-2,0.2-2.9,0.7c-0.7,0.4-1.1,1.2-1,2
	c0,0.4,0.1,0.8,0.2,1.2c0.2,0.4,0.5,0.7,0.9,0.9c0.5,0.3,1.1,0.6,1.7,0.7c0.9,0.3,1.7,0.5,2.6,0.6c2.2,0.3,4.3,1.1,6.1,2.4
	c1.4,1.3,2.2,3.1,2.1,5.1v0.4c0,1.1-0.2,2.2-0.6,3.2c-0.4,0.9-1.1,1.8-1.8,2.5c-0.9,0.7-1.8,1.2-2.9,1.6c-1.2,0.4-2.6,0.6-3.9,0.6
	c-1.5,0-3-0.2-4.4-0.7c-1.2-0.4-2.3-1.1-3.2-2c-0.8-0.8-1.5-1.8-1.9-3c-0.4-1.2-0.7-2.4-0.7-3.7v-1.1h4.8v0.9
	c-0.1,1.3,0.4,2.7,1.3,3.7c1.1,1,2.6,1.5,4.2,1.4c1.2,0.1,2.3-0.2,3.2-0.9c0.7-0.6,1-1.4,1-2.3c0-0.4-0.1-0.8-0.2-1.2
	c-0.2-0.4-0.4-0.8-0.8-1c-0.5-0.3-1-0.6-1.5-0.8c-0.8-0.3-1.6-0.5-2.4-0.6c-1.2-0.2-2.4-0.5-3.5-0.9c-1-0.3-1.9-0.8-2.8-1.4
	c-0.8-0.6-1.4-1.3-1.8-2.2c-0.5-1-0.7-2.1-0.7-3.2v-0.2c0-1,0.2-2,0.6-2.9c0.4-0.9,1-1.7,1.8-2.3c0.8-0.7,1.8-1.2,2.8-1.5
	c1.2-0.4,2.4-0.6,3.6-0.5c1.4,0,2.7,0.2,4,0.6c1.1,0.4,2.1,1,2.9,1.7c0.8,0.7,1.4,1.6,1.8,2.5c0.4,0.9,0.6,2,0.6,3v1.3h-4.8
	L1162.2,91.4z"/>
<path class="st2" d="M1192,83.7h16.1v4.6h-11.3v5.8h10.8v4.6h-10.8v5.9h11.7v4.6H1192V83.7z"/>
<path class="st2" d="M1251.1,109.1h-4.8v-7.6c0-0.5-0.1-1-0.5-1.4c-0.4-0.4-0.9-0.6-1.5-0.5h-5.5v9.6h-4.8V83.7h9.8
	c1.2,0,2.3,0.2,3.5,0.5c0.9,0.3,1.8,0.8,2.5,1.5c0.7,0.6,1.2,1.4,1.5,2.2c0.4,0.9,0.5,1.8,0.5,2.7v0.9c0,1-0.3,2.1-0.8,2.9
	c-0.6,1-1.5,1.7-2.6,2.1v0.7c1.6,0.1,2.8,1.5,2.8,3.1V109.1z M1238.8,94.9h4.6c1,0.1,1.9-0.2,2.7-0.8c0.6-0.6,1-1.4,0.9-2.3v-0.4
	c0-0.8-0.3-1.6-0.9-2.2c-0.7-0.7-1.7-1-2.7-0.9h-4.6V94.9z"/>
<path class="st2" d="M1274.4,83.7h4.9l5,23.1h0.7l5-23.1h4.9l-5.7,25.5h-9L1274.4,83.7z"/>
<path class="st2" d="M1318.8,83.7h16.1v4.6h-11.3v5.8h10.8v4.6h-10.8v5.9h11.7v4.6h-16.5V83.7z"/>
<path class="st2" d="M1377.9,109.1h-4.8v-7.6c0-0.5-0.1-1-0.5-1.4c-0.4-0.4-0.9-0.6-1.5-0.5h-5.5v9.6h-4.8V83.7h9.8
	c1.2,0,2.3,0.2,3.5,0.5c0.9,0.3,1.8,0.8,2.5,1.5c0.7,0.6,1.2,1.4,1.5,2.2c0.4,0.9,0.5,1.8,0.5,2.7v0.9c0,1-0.3,2.1-0.8,2.9
	c-0.6,1-1.5,1.7-2.6,2.1v0.7c1.6,0.1,2.8,1.5,2.8,3.1V109.1z M1365.6,94.9h4.6c1,0.1,1.9-0.2,2.7-0.8c0.6-0.6,1-1.4,0.9-2.3v-0.4
	c0-0.8-0.3-1.6-0.9-2.2c-0.7-0.7-1.7-1-2.7-0.9h-4.6V94.9z"/>
</svg>
